# xmcd CD database file
#
# Track frame offsets:
#	150
#	15259
#	31771
#	47430
#	61982
#	76506
#	94611
#	109114
#	125080
#	140949
#	161080
#	182006
#	194420
#	212420
#	224666
#	238159
#	257121
#	273734
#	288391
#	299669
#	310508
#	322942
#
# Disc length: 4465 seconds
#
# Revision: 0
# Processed by: cddbd v1.5.1PL2 Copyright (c) Steve Scherf et al.
# Submitted via: Feurio! 1.68 - http://www.feurio.com
#
DISCID=44116f16
DTITLE=Various Artist - John Lee Hooker - Sittin' Here Thinkin'     T-Bone Walker - 
DTITLE=T-Bone Blues
DYEAR=1900
DGENRE=Blues
TTITLE0=John Lee Hooker - I Bought You A Brand New Home
TTITLE1=John Lee Hooker - IBelieve I'll Lose My Mind
TTITLE2=John Lee Hooker - Teasin' Me
TTITLE3=John Lee Hooker - My Cryin' Day's Are Over
TTITLE4=John Lee Hooker - Sittin' Here Thinkin'
TTITLE5=John Lee Hooker - Mean Mistreadin'
TTITLE6=John Lee Hooker - How Long
TTITLE7=John Lee Hooker - How Many More Years
TTITLE8=John Lee Hooker - C. C. Rider
TTITLE9=John Lee Hooker - Sad And Lonesome
TTITLE10=John Lee Hooker - Can't You See What You're Doin' To Me
TTITLE11=T.Bone Walker - Two Bones And A Pick
TTITLE12=T.Bone Walker - Mean Old World
TTITLE13=T.Bone Walker - T.Bone Shuffle
TTITLE14=T.Bone Walker - Stormy Monday Blues
TTITLE15=T.Bone Walker - Blues For Marili
TTITLE16=T.Bone Walker - T.Bone Blues
TTITLE17=T.Bone Walker - Shufflin' The Blues
TTITLE18=T.Bone Walker - Evenin'
TTITLE19=T.Bone Walker - Play On Little Girl
TTITLE20=T.Bone Walker - Blues Rock
TTITLE21=T.Bone Walker - Papa Ain't Salty
EXTD=
EXTT0=
EXTT1=
EXTT2=
EXTT3=
EXTT4=
EXTT5=
EXTT6=
EXTT7=
EXTT8=
EXTT9=
EXTT10=
EXTT11=
EXTT12=
EXTT13=
EXTT14=
EXTT15=
EXTT16=
EXTT17=
EXTT18=
EXTT19=
EXTT20=
EXTT21=
PLAYORDER=
